<svg xmlns="http://www.w3.org/2000/svg" viewBox="0 0 800 480" width="800" height="480" role="img" aria-label="Skyline 界面规范封面">
  <defs>
    <linearGradient id="sk-bg" x1="0" y1="0" x2="800" y2="480" gradientUnits="userSpaceOnUse">
      <stop offset="0" stop-color="#0ea5e9"/>
      <stop offset="0.55" stop-color="#0284c7"/>
      <stop offset="1" stop-color="#075985"/>
    </linearGradient>
  </defs>
  <rect width="800" height="480" fill="url(#sk-bg)"/>
  <g opacity="0.95">
    <rect x="452" y="252" width="58" height="140" rx="8" fill="#e0f2fe" fill-opacity="0.24"/>
    <rect x="522" y="196" width="58" height="196" rx="8" fill="#e0f2fe" fill-opacity="0.34"/>
    <rect x="592" y="144" width="58" height="248" rx="8" fill="#e0f2fe" fill-opacity="0.46"/>
    <rect x="662" y="220" width="58" height="172" rx="8" fill="#e0f2fe" fill-opacity="0.3"/>
    <rect x="382" y="300" width="58" height="92" rx="8" fill="#e0f2fe" fill-opacity="0.16"/>
  </g>
  <g>
    <rect x="56" y="72" width="72" height="72" rx="16" fill="#f0f9ff"/>
    <rect x="146" y="72" width="72" height="72" rx="16" fill="#bae6fd"/>
    <rect x="236" y="72" width="72" height="72" rx="16" fill="#7dd3fc"/>
    <rect x="326" y="72" width="72" height="72" rx="16" fill="#38bdf8"/>
    <rect x="416" y="72" width="72" height="72" rx="16" fill="#0ea5e9"/>
    <rect x="506" y="72" width="72" height="72" rx="16" fill="#0284c7"/>
    <rect x="596" y="72" width="72" height="72" rx="16" fill="#075985"/>
    <rect x="686" y="72" width="72" height="72" rx="16" fill="#0c4a6e"/>
  </g>
  <g fill="#ffffff" opacity="0.55">
    <rect x="56" y="176" width="240" height="10" rx="5"/>
    <rect x="56" y="200" width="160" height="10" rx="5" opacity="0.7"/>
    <rect x="56" y="224" width="200" height="10" rx="5" opacity="0.45"/>
  </g>
  <text x="56" y="392" fill="#ffffff" font-family="-apple-system, 'Segoe UI', 'Microsoft YaHei', sans-serif" font-size="42" font-weight="700" letter-spacing="1">Skyline 界面规范</text>
  <text x="58" y="426" fill="#bae6fd" font-family="-apple-system, 'Segoe UI', 'Microsoft YaHei', sans-serif" font-size="17" font-weight="500" letter-spacing="3.4">DESIGN SYSTEM</text>
</svg>
